<?xml version="1.0" standalone="no"?>
<!DOCTYPE svg PUBLIC "-//W3C//DTD SVG 20010904//EN"
 "http://www.w3.org/TR/2001/REC-SVG-20010904/DTD/svg10.dtd">
<svg version="1.0" xmlns="http://www.w3.org/2000/svg"
 width="626.000000pt" height="626.000000pt" viewBox="0 0 626.000000 626.000000"
 preserveAspectRatio="xMidYMid meet">

<g transform="translate(0.000000,626.000000) scale(0.100000,-0.100000)"
fill="#000000" stroke="none">
<path d="M2962 4124 l-122 -146 0 -99 0 -100 58 -54 c84 -78 113 -145 122
-289 4 -61 13 -125 20 -143 11 -25 11 -41 1 -88 -13 -56 -78 -192 -132 -273
-16 -24 -29 -48 -29 -55 0 -12 144 -124 188 -146 l22 -12 0 731 c0 453 4 730
9 730 6 0 108 -47 228 -104 l218 -104 3 -86 c1 -47 0 -86 -3 -86 -3 0 -29 12
-57 26 -42 21 -53 23 -63 12 -7 -7 -65 -75 -129 -151 l-116 -138 0 -437 0
-437 96 -49 c52 -28 108 -65 125 -83 l29 -34 0 626 c0 344 2 625 4 625 2 0
105 -49 230 -109 l226 -110 0 -65 0 -66 -25 10 c-14 5 -40 17 -57 26 l-32 17
-128 -134 -127 -134 -3 -450 -3 -450 -31 -3 c-27 -3 -30 -6 -26 -28 l4 -24
154 0 154 0 0 550 c0 303 4 550 8 550 4 0 111 -47 237 -104 l230 -104 3 -446
2 -446 70 0 c67 0 70 1 70 24 0 15 -7 26 -20 29 -20 5 -20 14 -20 455 l0 450
-185 83 -184 84 -3 113 -3 113 -160 77 c-88 43 -166 81 -172 85 -9 6 -13 45
-13 136 l0 127 -262 127 c-145 70 -268 127 -273 127 -6 0 -65 -66 -133 -146z"/>
<path d="M2502 3722 c-73 -26 -122 -69 -156 -135 -25 -48 -29 -70 -34 -169 -3
-73 -10 -121 -19 -135 -13 -19 -13 -29 2 -79 16 -56 78 -174 137 -261 43 -64
38 -93 -24 -146 -103 -86 -185 -139 -305 -197 -67 -33 -139 -70 -161 -84 l-39
-24 -11 -95 c-7 -53 -12 -112 -12 -131 l0 -36 750 0 750 0 0 23 c-1 12 -7 70
-14 129 -9 85 -16 111 -32 123 -10 9 -75 43 -144 77 -146 71 -207 108 -312
192 -72 56 -78 64 -78 97 0 26 12 54 39 95 105 158 154 293 117 323 -13 11
-16 34 -16 115 0 117 -9 154 -49 218 -23 36 -44 53 -96 79 -58 28 -80 33 -154
36 -65 3 -99 -1 -139 -15z"/>
<path d="M3882 3094 l3 -76 140 -44 c77 -24 141 -44 143 -44 1 0 2 24 2 53 l0
54 -140 66 c-78 37 -143 67 -146 67 -3 0 -4 -34 -2 -76z"/>
<path d="M3880 2812 l0 -69 113 -12 c61 -7 127 -15 145 -18 l32 -5 0 50 c0 58
13 50 -161 96 -136 36 -129 39 -129 -42z"/>
<path d="M3880 2556 l0 -66 146 0 145 0 -3 53 -3 52 -75 7 c-41 3 -105 9 -142
13 l-68 6 0 -65z"/>
<path d="M3880 2300 l0 -60 145 0 145 0 0 60 0 60 -145 0 -145 0 0 -60z"/>
</g>
</svg>
