<svg width="20" height="18" viewBox="0 0 20 18" fill="none" xmlns="http://www.w3.org/2000/svg">
<path d="M18.521 0.292786C18.3335 0.105315 18.0792 0 17.814 0C17.5488 0 17.2945 0.105315 17.107 0.292786L1.48 15.9218C1.38449 16.014 1.30831 16.1244 1.2559 16.2464C1.20349 16.3684 1.1759 16.4996 1.17475 16.6324C1.1736 16.7652 1.1989 16.8968 1.24918 17.0197C1.29946 17.1426 1.37371 17.2543 1.4676 17.3482C1.5615 17.4421 1.67315 17.5163 1.79605 17.5666C1.91894 17.6169 2.05062 17.6422 2.1834 17.641C2.31618 17.6399 2.4474 17.6123 2.5694 17.5599C2.69141 17.5075 2.80175 17.4313 2.894 17.3358L18.52 1.70679C18.7075 1.51926 18.8128 1.26495 18.8128 0.999786C18.8128 0.734622 18.7085 0.480314 18.521 0.292786ZM3.108 12.3128L5.668 9.75279C5.59501 9.4454 5.5571 9.13072 5.555 8.81479C5.555 6.43579 7.545 4.50579 10 4.50579C10.286 4.50579 10.564 4.53779 10.835 4.58779L12.038 3.38579C11.3644 3.27419 10.6828 3.21734 10 3.21579C3.44 3.21479 0 8.04579 0 8.81479C0 9.23779 1.057 10.9058 3.108 12.3128ZM16.895 5.31979L14.333 7.87979C14.402 8.18179 14.444 8.49279 14.444 8.81479C14.444 11.1938 12.455 13.1218 10 13.1218C9.716 13.1218 9.44 13.0898 9.171 13.0408L7.967 14.2438C8.609 14.3478 9.283 14.4138 10 14.4138C16.56 14.4138 20 9.58079 20 8.81479C20 8.39079 18.944 6.72479 16.895 5.31979Z" fill="#2F5D7C"/>
</svg>
