<svg width="94" height="30" viewBox="0 0 94 30" fill="none" xmlns="http://www.w3.org/2000/svg">
<path d="M13.501 28.6807C13.6487 28.6842 13.7994 28.7018 13.835 28.7217C13.8764 28.7409 14.0569 28.7852 14.2412 28.8184C14.813 28.9258 16.4361 29.4109 16.834 29.5986C16.9272 29.6402 17.0138 29.673 17.0352 29.6699C17.0523 29.6679 17.2116 29.725 17.4229 29.8037C16.6341 29.9318 15.825 30 15 30C13.2437 30 11.5585 29.6963 9.99219 29.1416C10.1869 29.0759 10.4361 29.0005 10.7754 28.9023C11.6443 28.6553 11.8594 28.6341 13.501 28.6807ZM10.4551 24.0996C11.949 24.0701 13.2421 24.4693 15.5742 25.6592C15.6973 25.7241 16.6966 26.1504 17.4453 26.4688C16.2043 26.2225 15.0591 26.0193 14.7344 26.0176C14.2426 26.009 13.1102 26.1645 12.8096 26.2734C12.711 26.3079 12.4669 26.3933 12.2637 26.458C12.0651 26.517 11.8634 26.5923 11.8242 26.623C11.7835 26.6494 11.5416 26.7843 11.2842 26.9219C10.5677 27.3145 9.89265 27.8529 9.00684 28.7529C7.76861 28.2126 6.61728 27.5109 5.58008 26.6729C6.19058 26.0392 6.83408 25.5024 7.49121 25.0859C8.10759 24.6931 8.50501 24.5162 9.19238 24.3076C9.81031 24.1206 9.87614 24.1105 10.4551 24.0996ZM15 0C18.4414 3.34539e-09 21.6115 1.15957 24.1426 3.1084C23.754 3.01069 23.2376 2.9105 22.5801 2.80859C22.1221 2.73513 19.9036 2.7351 19.4463 2.80859C19.2768 2.83533 18.932 2.88862 18.6836 2.92871C18.4353 2.96878 18.1197 3.02926 17.9785 3.06934C17.8373 3.10943 17.6109 3.16288 17.4697 3.19629C16.4647 3.44355 15.4993 3.85125 14.4209 4.47266C14.1273 4.6464 13.7597 4.87355 13.6016 4.98047C12.4779 5.76242 10.6824 7.70007 8.71191 10.2725C8.31663 10.7803 7.72303 11.5226 7.39551 11.9102C6.82385 12.5929 5.99945 13.4517 5.81934 13.5566L5.76465 13.5781C5.73132 13.5982 5.68361 13.6443 5.64551 13.6943C5.53822 13.8347 4.52123 14.5703 4.43652 14.5703C4.40729 14.571 4.27248 14.6372 4.1377 14.7236C3.52793 15.1045 2.38754 15.4785 1.58008 15.5654C1.29773 15.5922 1.1731 15.6395 1.12793 15.7197C1.04352 15.8865 1.12813 15.9601 1.48926 16.0469C1.65866 16.087 1.9637 16.1606 2.16699 16.2207C2.37016 16.2741 2.72554 16.3408 2.95703 16.3809C3.18291 16.4143 3.47733 16.4746 3.60156 16.5146C3.72585 16.5547 3.9514 16.595 4.10938 16.6084C4.26749 16.6218 4.74229 16.682 5.16016 16.7422C6.2276 16.9025 8.88078 16.9025 9.79004 16.7422C10.1458 16.682 10.6204 16.6076 10.835 16.5742C11.5914 16.4606 12.1449 16.2542 12.5684 15.9336C12.7942 15.7532 12.8955 15.8863 12.8955 16.3672C12.8955 17.0087 13.2175 17.925 13.7822 18.9141C14.0985 19.4754 14.7995 20.3908 15.0762 20.6113C15.7301 21.1317 16.0631 21.3851 16.0977 21.3857C16.1146 21.3857 16.2783 21.4933 16.459 21.627C16.7865 21.8608 17.0691 21.914 17.1143 21.7402C17.1253 21.6999 16.9952 21.4931 16.8203 21.2861C16.3686 20.7382 16.1146 20.0766 15.9678 19.0811C15.8266 18.1054 15.9004 16.3207 16.1094 15.6992C16.1376 15.6122 16.2167 15.3318 16.29 15.0713C16.3578 14.8173 16.4703 14.4961 16.5381 14.3691C16.6058 14.2422 16.6735 14.0884 16.6904 14.0283C16.8148 13.6339 17.7744 12.2515 18.1924 11.877C18.2768 11.797 18.3558 11.7166 18.373 11.6963C18.39 11.6763 18.464 11.6099 18.543 11.5498C18.622 11.483 18.7859 11.3493 18.9102 11.249C19.3788 10.8548 20.265 10.4198 21.3096 10.0723C22.0606 9.81833 24.0485 9.71837 25.2344 9.87207C25.8555 9.95226 26.5102 10.113 26.6797 10.2266C26.7305 10.2599 26.8717 10.3063 26.9902 10.333C27.1145 10.3531 27.516 10.5467 27.8887 10.7539C28.5691 11.1371 29.1776 11.5999 29.7295 12.1562C29.9062 13.0771 30 14.0276 30 15C30 15.108 29.9974 15.2158 29.9951 15.3232C29.6484 14.7449 29.1037 14.0169 28.7803 13.7314C28.6951 13.6525 28.5608 13.5252 28.4756 13.4463C28.2124 13.1952 27.6131 12.7864 27.127 12.5352C26.319 12.1195 25.252 11.869 24.1709 11.8525C23.614 11.8393 22.2425 12.0195 21.7119 12.1719C21.2654 12.2952 20.7406 12.5131 20.5684 12.6387C20.4939 12.6919 20.3876 12.7449 20.332 12.7539C20.1699 12.7803 19.3423 13.4034 18.9854 13.7646C18.5529 14.205 18.288 14.5614 18.0039 15.0859C17.7598 15.5372 17.4365 16.3985 17.459 16.5391C17.4661 16.5844 17.4534 16.6994 17.4268 16.791C17.3115 17.237 17.3081 17.3459 17.4102 17.9834C17.5144 18.6669 17.647 19.042 17.9199 19.4512C17.9882 19.5535 18.0692 19.6693 18.0908 19.707C18.2629 19.9726 18.4888 20.1576 18.6152 20.1377C18.7315 20.119 18.7192 20.0693 18.5352 19.6973C18.4514 19.5305 18.3671 19.2971 18.3486 19.1816C18.2072 18.2982 18.9502 16.917 19.8672 16.3623C19.9855 16.2917 20.1224 16.2022 20.1689 16.1689C20.3361 16.0443 20.8964 15.8568 21.2803 15.7949C22.4438 15.6127 23.845 16.1334 24.8877 17.1396C25.286 17.5233 25.4298 17.7118 25.6943 18.2305C25.8742 18.5773 25.9158 18.7046 25.9951 19.2324C26.0779 19.7494 26.0803 19.8937 26.0195 20.2588C25.9122 20.8835 25.7713 21.3022 25.5312 21.6807C25.0364 22.4762 24.5181 22.9622 23.7383 23.3711C23.2542 23.619 23.2046 23.6368 22.502 23.75C22.0835 23.8225 21.6704 23.8635 21.5332 23.8496C20.943 23.7902 20.526 23.7133 20.1709 23.6006C19.6255 23.4311 19.5864 23.4166 19.4014 23.3281C19.0577 23.1569 17.8399 22.7402 17.3164 22.6133C17.0199 22.5426 16.6904 22.4612 16.5879 22.4365C16.3232 22.371 15.2276 22.2021 14.9131 22.1807C14.7708 22.1675 14.4719 22.1438 14.2568 22.127C13.8885 22.0936 13.2855 22.119 12.1865 22.2188C11.6188 22.2691 9.9249 22.6964 9.53027 22.8887C9.37153 22.9657 9.10037 23.0865 8.93066 23.1602C8.76096 23.2338 8.55917 23.3339 8.47461 23.3887C8.39427 23.4377 8.21034 23.554 8.06836 23.6387C6.98256 24.2961 6.07345 25.1337 5.1709 26.3301C2.00344 23.5799 0 19.5241 0 15C6.44258e-08 6.71573 6.71573 0 15 0Z" fill="#7BA7C5"/>
<path d="M38.2642 4.45455H42.0568L46.0625 14.2273H46.233L50.2386 4.45455H54.0312V19H51.0483V9.53267H50.9276L47.1634 18.929H45.1321L41.3679 9.49716H41.2472V19H38.2642V4.45455ZM65.5494 4.45455H68.6246V13.9006C68.6246 14.9612 68.3713 15.8892 67.8647 16.6847C67.3628 17.4801 66.6597 18.1004 65.7553 18.5455C64.851 18.9858 63.7975 19.206 62.5948 19.206C61.3874 19.206 60.3316 18.9858 59.4272 18.5455C58.5228 18.1004 57.8197 17.4801 57.3178 16.6847C56.8159 15.8892 56.565 14.9612 56.565 13.9006V4.45455H59.6403V13.6378C59.6403 14.1918 59.761 14.6842 60.0025 15.1151C60.2487 15.5459 60.5943 15.8845 61.0394 16.1307C61.4845 16.3769 62.003 16.5 62.5948 16.5C63.1914 16.5 63.7099 16.3769 64.1502 16.1307C64.5953 15.8845 64.9386 15.5459 65.18 15.1151C65.4263 14.6842 65.5494 14.1918 65.5494 13.6378V4.45455ZM74.2301 4.45455V19H71.1548V4.45455H74.2301ZM76.7603 19V4.45455H82.4989C83.5974 4.45455 84.5349 4.65104 85.3114 5.04403C86.0927 5.43229 86.6869 5.9839 87.0941 6.69886C87.506 7.40909 87.712 8.24479 87.712 9.20597C87.712 10.1719 87.5037 11.0028 87.087 11.6989C86.6703 12.3902 86.0666 12.9205 85.2759 13.2898C84.4899 13.6591 83.5382 13.8438 82.4208 13.8438H78.5785V11.3722H81.9237C82.5108 11.3722 82.9985 11.2917 83.3867 11.1307C83.775 10.9697 84.0638 10.7282 84.2532 10.4062C84.4473 10.0843 84.5444 9.68419 84.5444 9.20597C84.5444 8.72301 84.4473 8.31581 84.2532 7.98438C84.0638 7.65294 83.7726 7.40199 83.3796 7.23153C82.9914 7.05634 82.5013 6.96875 81.9094 6.96875H79.8356V19H76.7603ZM84.6154 12.3807L88.2305 19H84.8356L81.2987 12.3807H84.6154Z" fill="#7BA7C5"/>
<path d="M38.4403 26V22.3636H40.6349V22.7543H38.8807V23.983H40.5213V24.3736H38.8807V25.6094H40.6634V26H38.4403ZM50.8031 24.1818C50.8031 24.5653 50.7338 24.8968 50.5953 25.1761C50.4568 25.4555 50.2668 25.6709 50.0254 25.8224C49.7839 25.974 49.5081 26.0497 49.1979 26.0497C48.8878 26.0497 48.612 25.974 48.3705 25.8224C48.129 25.6709 47.9391 25.4555 47.8006 25.1761C47.6621 24.8968 47.5928 24.5653 47.5928 24.1818C47.5928 23.7983 47.6621 23.4669 47.8006 23.1875C47.9391 22.9081 48.129 22.6927 48.3705 22.5412C48.612 22.3897 48.8878 22.3139 49.1979 22.3139C49.5081 22.3139 49.7839 22.3897 50.0254 22.5412C50.2668 22.6927 50.4568 22.9081 50.5953 23.1875C50.7338 23.4669 50.8031 23.7983 50.8031 24.1818ZM50.3769 24.1818C50.3769 23.867 50.3242 23.6012 50.2189 23.3846C50.1147 23.168 49.9733 23.004 49.7945 22.8928C49.617 22.7815 49.4181 22.7259 49.1979 22.7259C48.9778 22.7259 48.7783 22.7815 48.5996 22.8928C48.422 23.004 48.2806 23.168 48.1752 23.3846C48.071 23.6012 48.019 23.867 48.019 24.1818C48.019 24.4967 48.071 24.7624 48.1752 24.979C48.2806 25.1957 48.422 25.3596 48.5996 25.4709C48.7783 25.5821 48.9778 25.6378 49.1979 25.6378C49.4181 25.6378 49.617 25.5821 49.7945 25.4709C49.9733 25.3596 50.1147 25.1957 50.2189 24.979C50.3242 24.7624 50.3769 24.4967 50.3769 24.1818ZM57.8497 26V22.3636H58.2901V25.6094H59.9804V26H57.8497ZM67.1176 26H66.656L67.9912 22.3636H68.4457L69.781 26H69.3193L68.2327 22.9389H68.2043L67.1176 26ZM67.2881 24.5795H69.1489V24.9702H67.2881V24.5795ZM77.094 22.3636V26H76.6536V22.3636H77.094ZM86.2718 23.2727C86.2504 23.0928 86.164 22.9531 86.0125 22.8537C85.861 22.7543 85.6752 22.7045 85.455 22.7045C85.294 22.7045 85.1531 22.7306 85.0324 22.7827C84.9128 22.8348 84.8193 22.9064 84.7519 22.9975C84.6856 23.0887 84.6524 23.1922 84.6524 23.3082C84.6524 23.4053 84.6755 23.4888 84.7217 23.5586C84.769 23.6272 84.8294 23.6847 84.9028 23.7308C84.9762 23.7758 85.0531 23.8131 85.1336 23.8427C85.2141 23.8711 85.2881 23.8942 85.3556 23.9119L85.7249 24.0114C85.8196 24.0362 85.9249 24.0705 86.0409 24.1143C86.1581 24.1581 86.27 24.2179 86.3765 24.2937C86.4842 24.3683 86.573 24.4641 86.6428 24.5813C86.7127 24.6985 86.7476 24.8423 86.7476 25.0128C86.7476 25.2093 86.6961 25.3868 86.5931 25.5455C86.4913 25.7041 86.3422 25.8301 86.1457 25.9237C85.9504 26.0172 85.713 26.0639 85.4337 26.0639C85.1733 26.0639 84.9478 26.0219 84.7572 25.9379C84.5678 25.8538 84.4186 25.7366 84.3097 25.5863C84.202 25.436 84.1411 25.2614 84.1269 25.0625H84.5814C84.5932 25.1998 84.6394 25.3134 84.7199 25.4034C84.8016 25.4922 84.9046 25.5585 85.0289 25.6023C85.1543 25.6449 85.2893 25.6662 85.4337 25.6662C85.6018 25.6662 85.7527 25.639 85.8865 25.5845C86.0202 25.5289 86.1262 25.4519 86.2043 25.3537C86.2824 25.2543 86.3215 25.1383 86.3215 25.0057C86.3215 24.8849 86.2877 24.7867 86.2203 24.7109C86.1528 24.6352 86.064 24.5736 85.9539 24.5263C85.8438 24.4789 85.7249 24.4375 85.597 24.402L85.1496 24.2741C84.8655 24.1925 84.6406 24.0759 84.4749 23.9244C84.3092 23.7728 84.2263 23.5746 84.2263 23.3295C84.2263 23.1259 84.2813 22.9484 84.3914 22.7969C84.5027 22.6442 84.6518 22.5258 84.8389 22.4418C85.0271 22.3565 85.2372 22.3139 85.4692 22.3139C85.7036 22.3139 85.9119 22.3559 86.0942 22.44C86.2765 22.5228 86.4209 22.6365 86.5274 22.7809C86.6352 22.9253 86.692 23.0893 86.6979 23.2727H86.2718Z" fill="#7BA7C5"/>
</svg>
