<?xml version="1.0" standalone="no"?>
<!DOCTYPE svg PUBLIC "-//W3C//DTD SVG 20010904//EN"
 "http://www.w3.org/TR/2001/REC-SVG-20010904/DTD/svg10.dtd">
<svg version="1.0" xmlns="http://www.w3.org/2000/svg"
 width="260.000000pt" height="280.000000pt" viewBox="0 0 260.000000 280.000000"
 preserveAspectRatio="xMidYMid meet">

<g transform="translate(0.000000,280.000000) scale(0.100000,-0.100000)"
fill="#000000" stroke="none">
<path d="M1154 2266 c-100 -26 -178 -62 -209 -96 -32 -35 -25 -97 14 -132 17
-15 41 -52 52 -80 17 -44 20 -65 14 -129 -6 -71 -5 -77 18 -105 14 -16 30 -48
36 -70 28 -105 98 -154 220 -154 123 0 187 45 221 155 7 22 23 53 36 68 26 30
30 70 15 124 -12 41 27 155 62 184 14 10 31 35 37 54 25 76 -51 136 -226 181
-119 30 -173 30 -290 0z m163 -22 c3 -9 1 -25 -6 -36 -14 -22 -9 -31 17 -33
22 -1 22 -19 0 -20 -26 -2 -27 -5 -21 -57 5 -45 6 -46 29 -36 13 6 24 17 24
24 0 6 7 15 16 18 23 9 24 8 17 -11 -8 -21 -37 -48 -75 -68 -25 -14 -31 -14
-55 0 -39 20 -68 47 -76 68 -7 19 -6 20 17 11 9 -3 16 -12 16 -18 0 -7 11 -18
24 -24 23 -10 24 -9 30 35 7 52 5 55 -24 57 -28 1 -30 19 -3 21 31 2 36 10 22
33 -16 25 -5 52 21 52 11 0 23 -7 27 -16z m160 -260 c29 -4 50 -11 47 -16 -12
-19 -105 -58 -163 -67 -74 -12 -165 1 -225 31 -70 35 -75 42 -30 49 54 8 308
10 371 3z"/>
<path d="M956 1410 c-82 -32 -164 -69 -182 -84 -70 -56 -128 -221 -141 -407
l-6 -87 309 -7 c292 -7 1023 0 1033 11 2 2 -1 56 -7 119 -20 184 -78 336 -148
382 -16 10 -94 43 -174 75 -114 44 -147 53 -155 43 -6 -7 -28 -103 -50 -214
-21 -110 -42 -201 -45 -201 -9 0 -43 232 -41 278 0 21 2 53 3 72 3 29 -1 36
-24 44 -18 6 -38 6 -55 0 -27 -10 -28 -12 -25 -78 3 -69 -26 -316 -37 -316 -3
0 -25 93 -49 207 -23 114 -46 210 -50 214 -4 4 -74 -19 -156 -51z"/>
</g>
</svg>
