<svg width="827" height="829" viewBox="0 0 827 829" fill="none" xmlns="http://www.w3.org/2000/svg">
<path d="M234.727 773.58C259.451 770.818 265.384 771.22 309.749 779.982C313.742 780.753 317.726 781.934 318.601 782.639C319.624 783.346 324.332 785.366 329.194 787.115C344.219 792.645 386.08 813.28 396.022 820.209C398.362 821.767 400.561 823.046 401.155 823.059C401.615 823.069 405.749 825.37 411.191 828.517C389.151 828.412 366.831 826.534 344.393 822.762C296.679 814.742 252.266 798.81 212.261 776.535C217.864 775.628 225.005 774.711 234.727 773.58ZM248.015 641.32C288.71 647.335 321.985 664.114 379.856 707.164C382.88 709.479 407.99 725.615 426.857 737.7C394.331 725.346 364.217 714.633 355.417 713.105C342.104 710.627 310.631 709.679 301.977 711.276C299.143 711.764 292.133 712.985 286.32 713.82C280.659 714.522 274.839 715.631 273.636 716.291C272.434 716.814 265.244 719.401 257.609 721.979C236.346 729.404 215.552 741 187.361 761.487C156.203 741.111 128.156 716.709 103.826 689.136C123.308 674.659 143.277 663.024 163.032 654.679C181.566 646.794 193.152 643.779 212.769 641.236C230.411 638.962 232.244 638.973 248.015 641.32ZM481.733 5.76178C575.145 21.4647 655.908 67.4801 715.7 132.082C705.602 127.653 692.046 122.614 674.686 116.847C662.604 112.757 602.352 102.629 589.598 102.543C584.876 102.498 575.279 102.381 568.35 102.339C561.421 102.297 552.559 102.492 548.543 102.94C544.527 103.387 538.15 103.812 534.164 104.078C505.743 106.224 477.66 112.918 445.532 124.921C436.765 128.313 425.759 132.825 420.977 135.015C386.888 151.18 329.263 195.761 263.978 256.833C250.921 268.86 231.428 286.355 220.761 295.416C200.87 312.468 172.243 333.666 169.634 333.23C168.867 333.101 166.752 334.43 165.067 336.018C161.511 339.35 130.55 354.729 128.25 354.343C127.483 354.214 123.498 355.416 119.421 357.163C101.119 364.754 68.4361 369.738 46.1148 368.419C38.3271 367.858 34.7402 368.566 33.1466 370.543C30.0822 374.706 32.0453 377.094 41.4592 381.11C45.875 382.975 53.8178 386.369 59.0617 388.935C64.3363 391.319 73.6889 394.762 79.7911 396.91C85.7706 398.851 93.4672 401.83 96.6565 403.489C99.8459 405.148 105.795 407.27 110.027 408.356C114.259 409.441 126.861 413.245 137.931 416.79C166.173 426.028 238.229 438.141 263.646 437.923C273.58 437.908 286.795 438.071 292.774 438.14C313.838 438.5 329.811 435.384 342.778 428.582C349.737 424.699 351.884 428.802 349.682 441.905C346.745 459.377 351.293 485.779 362.096 515.29C368.112 532.021 382.931 560.149 389.433 567.418C404.831 584.602 412.715 593.039 413.635 593.194C414.097 593.273 418.052 596.931 422.345 601.395C430.166 609.259 437.587 612.004 439.61 607.478C440.1 606.438 437.521 600.203 433.717 593.762C423.961 576.777 420.091 557.6 420.663 529.814C421.297 502.599 431.458 454.343 439.976 438.371C441.14 436.134 444.571 428.851 447.757 422.088C450.76 415.482 455.295 407.262 457.716 404.113C460.137 400.965 462.68 397.089 463.415 395.528C468.593 385.358 500.989 352.067 514.048 343.782C516.714 341.985 519.228 340.162 519.779 339.693C520.331 339.225 522.63 337.74 525.052 336.463C527.504 335.004 532.562 332.111 536.393 329.949C550.923 321.35 576.982 313.566 606.936 308.871C628.489 305.383 682.914 311.725 714.406 321.323C730.903 326.342 747.953 333.7 752.032 337.567C753.259 338.708 756.878 340.626 759.975 341.895C763.256 343.008 773.254 350.117 782.424 357.459C799.155 371.008 813.581 386.39 826.022 404.076C826.602 429.949 824.763 456.252 820.313 482.722C819.822 485.644 819.298 488.554 818.748 491.452C811.981 474.122 800.483 451.857 793.013 442.612C791.061 440.072 787.992 435.982 786.039 433.442C780.044 425.401 765.637 411.55 753.587 402.487C733.55 387.477 705.732 375.788 676.451 370.406C661.39 367.503 623.336 366.137 608.236 367.866C595.537 369.19 580.281 372.744 575.042 375.378C572.778 376.486 569.668 377.45 568.117 377.44C563.606 377.411 538.261 390.587 526.914 398.798C513.156 408.82 504.344 417.328 494.227 430.321C485.535 441.497 472.806 463.459 472.773 467.39C472.763 468.654 471.891 471.737 470.743 474.117C465.572 485.737 464.984 488.682 464.836 506.511C464.537 525.604 466.422 536.427 471.959 548.818C473.343 551.915 475.005 555.435 475.419 556.561C478.877 564.586 484.185 570.657 487.709 570.68C490.952 570.7 490.822 569.295 487.53 558.323C486.02 553.4 484.806 546.652 484.833 543.423C485.037 518.714 511.543 484.485 538.985 473.568C542.52 472.187 546.623 470.388 548.039 469.695C553.136 467.059 569.23 464.494 579.945 464.562C612.368 464.909 648.008 485.494 671.71 517.656C680.772 529.928 683.826 535.704 688.633 551.039C691.932 561.309 692.466 564.963 692.203 579.703C692.084 594.163 691.487 598.09 688.165 607.756C682.389 624.287 676.66 635.062 668.407 644.275C651.328 663.682 635.026 674.53 611.983 682.105C597.706 686.647 596.293 686.919 576.697 686.794C564.996 686.86 553.582 686.086 549.925 685.08C534.17 680.768 523.206 676.767 514.081 672.075C500.041 664.966 499.059 664.398 494.433 661.14C485.885 654.908 454.727 638.002 441.099 632.159C433.372 628.88 424.802 625.175 422.133 624.035C415.249 621.043 386.287 611.452 377.844 609.432C374.046 608.425 366.026 606.409 360.258 604.969C350.41 602.379 333.931 600.309 303.639 598.01C287.999 596.787 240.033 600.694 228.444 604.13C223.78 605.504 215.867 607.56 210.923 608.792C205.978 610.024 200.042 611.812 197.495 612.919C195.09 613.886 189.572 616.238 185.329 617.896C152.833 630.845 124.316 649.513 94.3282 677.985C20.9153 588.63 -14.8983 469.016 5.8143 345.802C43.74 120.194 256.816 -32.0473 481.733 5.76178Z" fill="#A0D6FC" fill-opacity="0.3" style="mix-blend-mode:overlay"/>
</svg>
