<svg width="94" height="30" viewBox="0 0 94 30" fill="none" xmlns="http://www.w3.org/2000/svg">
<path d="M13.501 28.6807C13.6487 28.6842 13.7994 28.7018 13.835 28.7217C13.8764 28.7409 14.0569 28.7852 14.2412 28.8184C14.813 28.9258 16.4361 29.4109 16.834 29.5986C16.9272 29.6402 17.0138 29.673 17.0352 29.6699C17.0523 29.6679 17.2116 29.725 17.4229 29.8037C16.6341 29.9318 15.825 30 15 30C13.2437 30 11.5585 29.6963 9.99219 29.1416C10.1869 29.0759 10.4361 29.0005 10.7754 28.9023C11.6443 28.6553 11.8594 28.6341 13.501 28.6807ZM10.4551 24.0996C11.949 24.0701 13.2421 24.4693 15.5742 25.6592C15.6973 25.7241 16.6966 26.1504 17.4453 26.4688C16.2043 26.2225 15.0591 26.0193 14.7344 26.0176C14.2426 26.009 13.1102 26.1645 12.8096 26.2734C12.711 26.3079 12.4669 26.3933 12.2637 26.458C12.0651 26.517 11.8634 26.5923 11.8242 26.623C11.7835 26.6494 11.5416 26.7843 11.2842 26.9219C10.5677 27.3145 9.89265 27.8529 9.00684 28.7529C7.76861 28.2126 6.61728 27.5109 5.58008 26.6729C6.19058 26.0392 6.83408 25.5024 7.49121 25.0859C8.10759 24.6931 8.50501 24.5162 9.19238 24.3076C9.81031 24.1206 9.87614 24.1105 10.4551 24.0996ZM15 0C18.4414 3.34539e-09 21.6115 1.15957 24.1426 3.1084C23.754 3.01069 23.2376 2.9105 22.5801 2.80859C22.1221 2.73513 19.9036 2.7351 19.4463 2.80859C19.2768 2.83533 18.932 2.88862 18.6836 2.92871C18.4353 2.96878 18.1197 3.02926 17.9785 3.06934C17.8373 3.10943 17.6109 3.16288 17.4697 3.19629C16.4647 3.44355 15.4993 3.85125 14.4209 4.47266C14.1273 4.6464 13.7597 4.87355 13.6016 4.98047C12.4779 5.76242 10.6824 7.70007 8.71191 10.2725C8.31663 10.7803 7.72303 11.5226 7.39551 11.9102C6.82385 12.5929 5.99945 13.4517 5.81934 13.5566L5.76465 13.5781C5.73132 13.5982 5.68361 13.6443 5.64551 13.6943C5.53822 13.8347 4.52123 14.5703 4.43652 14.5703C4.40729 14.571 4.27248 14.6372 4.1377 14.7236C3.52793 15.1045 2.38754 15.4785 1.58008 15.5654C1.29773 15.5922 1.1731 15.6395 1.12793 15.7197C1.04352 15.8865 1.12813 15.9601 1.48926 16.0469C1.65866 16.087 1.9637 16.1606 2.16699 16.2207C2.37016 16.2741 2.72554 16.3408 2.95703 16.3809C3.18291 16.4143 3.47733 16.4746 3.60156 16.5146C3.72585 16.5547 3.9514 16.595 4.10938 16.6084C4.26749 16.6218 4.74229 16.682 5.16016 16.7422C6.2276 16.9025 8.88078 16.9025 9.79004 16.7422C10.1458 16.682 10.6204 16.6076 10.835 16.5742C11.5914 16.4606 12.1449 16.2542 12.5684 15.9336C12.7942 15.7532 12.8955 15.8863 12.8955 16.3672C12.8955 17.0087 13.2175 17.925 13.7822 18.9141C14.0985 19.4754 14.7995 20.3908 15.0762 20.6113C15.7301 21.1317 16.0631 21.3851 16.0977 21.3857C16.1146 21.3857 16.2783 21.4933 16.459 21.627C16.7865 21.8608 17.0691 21.914 17.1143 21.7402C17.1253 21.6999 16.9952 21.4931 16.8203 21.2861C16.3686 20.7382 16.1146 20.0766 15.9678 19.0811C15.8266 18.1054 15.9004 16.3207 16.1094 15.6992C16.1376 15.6122 16.2167 15.3318 16.29 15.0713C16.3578 14.8173 16.4703 14.4961 16.5381 14.3691C16.6058 14.2422 16.6735 14.0884 16.6904 14.0283C16.8148 13.6339 17.7744 12.2515 18.1924 11.877C18.2768 11.797 18.3558 11.7166 18.373 11.6963C18.39 11.6763 18.464 11.6099 18.543 11.5498C18.622 11.483 18.7859 11.3493 18.9102 11.249C19.3788 10.8548 20.265 10.4198 21.3096 10.0723C22.0606 9.81833 24.0485 9.71837 25.2344 9.87207C25.8555 9.95226 26.5102 10.113 26.6797 10.2266C26.7305 10.2599 26.8717 10.3063 26.9902 10.333C27.1145 10.3531 27.516 10.5467 27.8887 10.7539C28.5691 11.1371 29.1776 11.5999 29.7295 12.1562C29.9062 13.0771 30 14.0276 30 15C30 15.108 29.9974 15.2158 29.9951 15.3232C29.6484 14.7449 29.1037 14.0169 28.7803 13.7314C28.6951 13.6525 28.5608 13.5252 28.4756 13.4463C28.2124 13.1952 27.6131 12.7864 27.127 12.5352C26.319 12.1195 25.252 11.869 24.1709 11.8525C23.614 11.8393 22.2425 12.0195 21.7119 12.1719C21.2654 12.2952 20.7406 12.5131 20.5684 12.6387C20.4939 12.6919 20.3876 12.7449 20.332 12.7539C20.1699 12.7803 19.3423 13.4034 18.9854 13.7646C18.5529 14.205 18.288 14.5614 18.0039 15.0859C17.7598 15.5372 17.4365 16.3985 17.459 16.5391C17.4661 16.5844 17.4534 16.6994 17.4268 16.791C17.3115 17.237 17.3081 17.3459 17.4102 17.9834C17.5144 18.6669 17.647 19.042 17.9199 19.4512C17.9882 19.5535 18.0692 19.6693 18.0908 19.707C18.2629 19.9726 18.4888 20.1576 18.6152 20.1377C18.7315 20.119 18.7192 20.0693 18.5352 19.6973C18.4514 19.5305 18.3671 19.2971 18.3486 19.1816C18.2072 18.2982 18.9502 16.917 19.8672 16.3623C19.9855 16.2917 20.1224 16.2022 20.1689 16.1689C20.3361 16.0443 20.8964 15.8568 21.2803 15.7949C22.4438 15.6127 23.845 16.1334 24.8877 17.1396C25.286 17.5233 25.4298 17.7118 25.6943 18.2305C25.8742 18.5773 25.9158 18.7046 25.9951 19.2324C26.0779 19.7494 26.0803 19.8937 26.0195 20.2588C25.9122 20.8835 25.7713 21.3022 25.5312 21.6807C25.0364 22.4762 24.5181 22.9622 23.7383 23.3711C23.2542 23.619 23.2046 23.6368 22.502 23.75C22.0835 23.8225 21.6704 23.8635 21.5332 23.8496C20.943 23.7902 20.526 23.7133 20.1709 23.6006C19.6255 23.4311 19.5864 23.4166 19.4014 23.3281C19.0577 23.1569 17.8399 22.7402 17.3164 22.6133C17.0199 22.5426 16.6904 22.4612 16.5879 22.4365C16.3232 22.371 15.2276 22.2021 14.9131 22.1807C14.7708 22.1675 14.4719 22.1438 14.2568 22.127C13.8885 22.0936 13.2855 22.119 12.1865 22.2188C11.6188 22.2691 9.9249 22.6964 9.53027 22.8887C9.37153 22.9657 9.10037 23.0865 8.93066 23.1602C8.76096 23.2338 8.55917 23.3339 8.47461 23.3887C8.39427 23.4377 8.21034 23.554 8.06836 23.6387C6.98256 24.2961 6.07345 25.1337 5.1709 26.3301C2.00344 23.5799 0 19.5241 0 15C6.44258e-08 6.71573 6.71573 0 15 0ZM3.88574 18.3633C3.71425 18.3491 3.53806 18.354 3.50195 18.3682C3.00558 18.5665 2.8162 18.7462 2.75293 19.0908C2.70779 19.327 2.84306 19.6295 3.10938 19.8799C3.61499 20.357 4.49076 20.6308 5.66895 20.6875C6.22876 20.7111 6.4775 20.6881 7.15918 20.5322C7.62421 20.4283 8.45072 20.074 8.85254 19.8047C8.95185 19.7386 9.06485 19.6623 9.10547 19.6387C9.66968 19.2891 10.2476 18.8502 10.2656 18.751C10.2881 18.6329 10.1478 18.5996 9.98535 18.6846C9.55644 18.9255 8.85639 19.0916 8.08887 19.1436C7.29431 19.1955 6.25598 19.1334 5.82715 19.0059C5.15928 18.8123 5.04612 18.7702 4.87012 18.6758C4.50893 18.4868 4.19727 18.3869 3.88574 18.3633Z" fill="#7BA7C5"/>
<path d="M39.1009 8.95455H43.4545L47.1477 17.9602H47.3182L51.0114 8.95455H55.3651V23.5H51.9418V14.5653H51.821L48.3267 23.4077H46.1392L42.6449 14.5156H42.5241V23.5H39.1009V8.95455ZM66.3576 8.95455H69.8661V18.3366C69.8661 19.4209 69.6081 20.3655 69.092 21.1705C68.5759 21.9706 67.8562 22.5909 66.9329 23.0312C66.0096 23.4669 64.9371 23.6847 63.7156 23.6847C62.4798 23.6847 61.4002 23.4669 60.4769 23.0312C59.5536 22.5909 58.8363 21.9706 58.3249 21.1705C57.8136 20.3655 57.5579 19.4209 57.5579 18.3366V8.95455H61.0735V18.0312C61.0735 18.5331 61.1824 18.9806 61.4002 19.3736C61.6228 19.7666 61.9329 20.0743 62.3306 20.2969C62.7283 20.5194 63.19 20.6307 63.7156 20.6307C64.2411 20.6307 64.7004 20.5194 65.0934 20.2969C65.4911 20.0743 65.8013 19.7666 66.0238 19.3736C66.2463 18.9806 66.3576 18.5331 66.3576 18.0312V8.95455ZM75.5852 8.95455V23.5H72.0696V8.95455H75.5852ZM77.7923 23.5V8.95455H83.8008C84.8898 8.95455 85.8297 9.15104 86.6204 9.54403C87.4158 9.93229 88.029 10.491 88.4599 11.2202C88.8907 11.9446 89.1062 12.804 89.1062 13.7983C89.1062 14.8068 88.886 15.6638 88.4457 16.3693C88.0053 17.0701 87.3803 17.6051 86.5707 17.9744C85.761 18.339 84.8022 18.5213 83.6942 18.5213H79.8945V15.7514H83.0408C83.5711 15.7514 84.0138 15.6828 84.369 15.5455C84.7288 15.4034 85.0011 15.1903 85.1857 14.9062C85.3704 14.6174 85.4627 14.2481 85.4627 13.7983C85.4627 13.3485 85.3704 12.9768 85.1857 12.6832C85.0011 12.3849 84.7288 12.1624 84.369 12.0156C84.0091 11.8641 83.5664 11.7884 83.0408 11.7884H81.3079V23.5H77.7923ZM85.9812 16.8523L89.6033 23.5H85.7681L82.217 16.8523H85.9812Z" fill="#7BA7C5"/>
</svg>
