<svg width="30" height="29" viewBox="0 0 30 29" fill="none" xmlns="http://www.w3.org/2000/svg">
<rect width="30" height="29" rx="3" fill="#678CA6" fill-opacity="0.39"/>
<path d="M17.9835 16.859C18.8753 15.7107 19.4386 14.2379 19.4386 12.6153C19.4386 8.97063 16.6458 6 13.2193 6C9.79281 6 7 8.97063 7 12.6153C7 16.2599 9.79281 19.2305 13.2193 19.2305C14.7213 19.2305 16.1294 18.6564 17.209 17.6828L22.0436 22.8253C22.161 22.9501 22.3018 23 22.4426 23C22.5834 23 22.7242 22.9501 22.8416 22.8253C23.0528 22.6006 23.0528 22.2012 22.8416 21.9765L17.9835 16.859ZM13.1958 18.0323C10.3795 18.0323 8.10304 15.6109 8.10304 12.6153C8.10304 9.61968 10.3795 7.19824 13.1958 7.19824C16.0121 7.19824 18.2886 9.61968 18.2886 12.6153C18.2886 15.6109 16.0121 18.0323 13.1958 18.0323Z" fill="#678CA6"/>
</svg>
